<svg width="106" height="35" viewBox="0 0 106 35" fill="none" xmlns="http://www.w3.org/2000/svg">
<rect x="1" y="1" width="104" height="33" rx="9" stroke="#DC0000" stroke-width="2"/>
<path d="M25.375 15.25C25.375 19.7236 17.5 27.625 17.5 27.625C17.5 27.625 9.625 19.7236 9.625 15.25C9.625 10.7765 13.1508 7.375 17.5 7.375C21.8492 7.375 25.375 10.7765 25.375 15.25Z" stroke="#DC0000" stroke-width="2" stroke-linecap="round" stroke-linejoin="round"/>
<path d="M17.5 18.625C19.364 18.625 20.875 17.114 20.875 15.25C20.875 13.386 19.364 11.875 17.5 11.875C15.636 11.875 14.125 13.386 14.125 15.25C14.125 17.114 15.636 18.625 17.5 18.625Z" stroke="#DC0000" stroke-width="2" stroke-linecap="round" stroke-linejoin="round"/>
<path d="M35.7744 15.176C35.0064 15.176 34.2758 14.9893 33.5824 14.616L34.3344 13.144C34.7504 13.3787 35.2091 13.496 35.7104 13.496C36.3824 13.496 36.9691 13.0907 37.4704 12.28L32.7984 3.8H35.0064L38.4944 10.312L41.5664 3.8H43.6944L39.3264 12.552C38.4624 14.3013 37.2784 15.176 35.7744 15.176ZM45.3332 15V6.552H47.2532V10.6L50.9332 6.552H53.2052L49.9252 10.104L53.4772 15H51.1892L48.6292 11.512L47.2532 12.968V15H45.3332ZM61.9056 15H59.9856V13.96C59.3029 14.7707 58.3909 15.176 57.2496 15.176C56.4069 15.176 55.6922 14.9467 55.1056 14.488C54.5296 14.0187 54.2416 13.368 54.2416 12.536C54.2416 11.6293 54.5562 10.9413 55.1856 10.472C55.8149 10.0027 56.6416 9.768 57.6656 9.768C58.4869 9.768 59.2656 9.88533 60.0016 10.12V9.96C60.0016 9.37333 59.8202 8.92533 59.4576 8.616C59.1056 8.30667 58.5936 8.152 57.9216 8.152C57.1536 8.152 56.3482 8.328 55.5056 8.68L54.9776 7.128C56.0229 6.65867 57.0949 6.424 58.1936 6.424C59.4202 6.424 60.3429 6.73333 60.9616 7.352C61.5909 7.97067 61.9056 8.85067 61.9056 9.992V15ZM60.0336 11.944V11.464C59.4576 11.24 58.8122 11.128 58.0976 11.128C57.4896 11.128 57.0149 11.2453 56.6736 11.48C56.3322 11.7147 56.1616 12.0453 56.1616 12.472C56.1616 12.856 56.3162 13.16 56.6256 13.384C56.9349 13.608 57.3242 13.72 57.7936 13.72C58.4442 13.72 58.9776 13.5547 59.3936 13.224C59.8202 12.8933 60.0336 12.4667 60.0336 11.944ZM67.0882 15.192C65.6375 15.192 64.4055 14.76 63.3922 13.896L64.3042 12.616C65.0935 13.288 65.9789 13.624 66.9602 13.624C67.4082 13.624 67.7869 13.5173 68.0962 13.304C68.4055 13.08 68.5602 12.7973 68.5602 12.456C68.5602 12.136 68.4109 11.88 68.1122 11.688C67.8135 11.496 67.3922 11.4 66.8482 11.4H65.8082V10.008H66.8482C67.2962 10.008 67.6535 9.90667 67.9202 9.704C68.1975 9.49067 68.3362 9.224 68.3362 8.904C68.3362 8.616 68.2029 8.38667 67.9362 8.216C67.6802 8.03467 67.3495 7.944 66.9442 7.944C66.0055 7.944 65.2055 8.232 64.5442 8.808L63.6802 7.592C64.6082 6.78133 65.7549 6.376 67.1202 6.376C68.0482 6.376 68.8055 6.58933 69.3922 7.016C69.9789 7.44267 70.2722 7.98667 70.2722 8.648C70.2722 9.544 69.8295 10.184 68.9442 10.568C69.9682 10.9307 70.4802 11.6133 70.4802 12.616C70.4802 13.3413 70.1655 13.9547 69.5362 14.456C68.9069 14.9467 68.0909 15.192 67.0882 15.192ZM79.5774 15H77.6574V13.96C76.9748 14.7707 76.0628 15.176 74.9214 15.176C74.0788 15.176 73.3641 14.9467 72.7774 14.488C72.2014 14.0187 71.9134 13.368 71.9134 12.536C71.9134 11.6293 72.2281 10.9413 72.8574 10.472C73.4868 10.0027 74.3134 9.768 75.3374 9.768C76.1588 9.768 76.9374 9.88533 77.6734 10.12V9.96C77.6734 9.37333 77.4921 8.92533 77.1294 8.616C76.7774 8.30667 76.2654 8.152 75.5934 8.152C74.8254 8.152 74.0201 8.328 73.1774 8.68L72.6494 7.128C73.6948 6.65867 74.7668 6.424 75.8654 6.424C77.0921 6.424 78.0148 6.73333 78.6334 7.352C79.2628 7.97067 79.5774 8.85067 79.5774 9.992V15ZM77.7054 11.944V11.464C77.1294 11.24 76.4841 11.128 75.7694 11.128C75.1614 11.128 74.6868 11.2453 74.3454 11.48C74.0041 11.7147 73.8334 12.0453 73.8334 12.472C73.8334 12.856 73.9881 13.16 74.2974 13.384C74.6068 13.608 74.9961 13.72 75.4654 13.72C76.1161 13.72 76.6494 13.5547 77.0654 13.224C77.4921 12.8933 77.7054 12.4667 77.7054 11.944ZM83.6881 15V8.216H80.9681V6.552H88.3601V8.216H85.6401V15H83.6881ZM89.8957 15V6.552H91.8317V9.512H93.7677C94.7704 9.512 95.581 9.736 96.1997 10.184C96.8184 10.632 97.1277 11.2987 97.1277 12.184C97.1277 13.0587 96.8397 13.7467 96.2637 14.248C95.6877 14.7493 94.9037 15 93.9117 15H89.8957ZM91.8317 13.432H93.6557C94.1464 13.432 94.525 13.3253 94.7917 13.112C95.0584 12.8987 95.1917 12.5893 95.1917 12.184C95.1917 11.8107 95.053 11.5227 94.7757 11.32C94.509 11.1173 94.125 11.016 93.6237 11.016H91.8317V13.432ZM48.7728 30H46.8528V28.96C46.1701 29.7707 45.2581 30.176 44.1168 30.176C43.2741 30.176 42.5594 29.9467 41.9728 29.488C41.3968 29.0187 41.1088 28.368 41.1088 27.536C41.1088 26.6293 41.4234 25.9413 42.0528 25.472C42.6821 25.0027 43.5088 24.768 44.5328 24.768C45.3541 24.768 46.1328 24.8853 46.8688 25.12V24.96C46.8688 24.3733 46.6874 23.9253 46.3248 23.616C45.9728 23.3067 45.4608 23.152 44.7888 23.152C44.0208 23.152 43.2154 23.328 42.3728 23.68L41.8448 22.128C42.8901 21.6587 43.9621 21.424 45.0608 21.424C46.2874 21.424 47.2101 21.7333 47.8288 22.352C48.4581 22.9707 48.7728 23.8507 48.7728 24.992V30ZM46.9008 26.944V26.464C46.3248 26.24 45.6794 26.128 44.9648 26.128C44.3568 26.128 43.8821 26.2453 43.5408 26.48C43.1994 26.7147 43.0288 27.0453 43.0288 27.472C43.0288 27.856 43.1834 28.16 43.4928 28.384C43.8021 28.608 44.1914 28.72 44.6608 28.72C45.3114 28.72 45.8448 28.5547 46.2608 28.224C46.6874 27.8933 46.9008 27.4667 46.9008 26.944ZM50.0994 32.032V28.336H51.0114C51.6407 27.0773 51.9554 25.1627 51.9554 22.592V21.552H58.4994V28.336H59.6994L59.4434 32.032H57.8274V30H51.9074L51.7154 32.032H50.0994ZM52.9954 28.336H56.5634V23.216H53.7794V24.336C53.7794 25.904 53.518 27.2373 52.9954 28.336ZM61.3098 32.56V21.552H63.2458V22.96C63.9924 21.904 64.9471 21.376 66.1098 21.376C67.1764 21.376 68.0991 21.776 68.8778 22.576C69.6564 23.3653 70.0458 24.4373 70.0458 25.792C70.0458 27.1253 69.6564 28.192 68.8778 28.992C68.0991 29.7813 67.1764 30.176 66.1098 30.176C64.9471 30.176 63.9924 29.68 63.2458 28.688V32.56H61.3098ZM65.6618 28.496C66.3444 28.496 66.9151 28.2453 67.3738 27.744C67.8431 27.2427 68.0778 26.5813 68.0778 25.76C68.0778 24.96 67.8431 24.3093 67.3738 23.808C66.9044 23.3067 66.3338 23.056 65.6618 23.056C64.9898 23.056 64.4084 23.312 63.9178 23.824C63.4378 24.336 63.1978 24.992 63.1978 25.792C63.1978 26.5813 63.4378 27.232 63.9178 27.744C64.4084 28.2453 64.9898 28.496 65.6618 28.496ZM75.9005 30.192C74.6632 30.192 73.6285 29.7813 72.7965 28.96C71.9752 28.1387 71.5645 27.0773 71.5645 25.776C71.5645 24.5493 71.9538 23.5093 72.7325 22.656C73.5112 21.8027 74.4978 21.376 75.6925 21.376C76.9725 21.376 77.9645 21.8133 78.6685 22.688C79.3832 23.552 79.7405 24.6293 79.7405 25.92C79.7405 26.1547 79.7298 26.336 79.7085 26.464H73.5005C73.6072 27.136 73.8792 27.664 74.3165 28.048C74.7538 28.4213 75.2925 28.608 75.9325 28.608C76.7645 28.608 77.5272 28.272 78.2205 27.6L79.3565 28.608C78.4818 29.664 77.3298 30.192 75.9005 30.192ZM73.4845 25.184H77.8205C77.7565 24.5333 77.5378 24 77.1645 23.584C76.7912 23.168 76.2952 22.96 75.6765 22.96C75.0898 22.96 74.5992 23.168 74.2045 23.584C73.8098 23.9893 73.5698 24.5227 73.4845 25.184ZM85.5888 30.192C84.3408 30.192 83.3008 29.7707 82.4688 28.928C81.6368 28.0747 81.2208 27.04 81.2208 25.824V25.792C81.2208 24.576 81.6368 23.536 82.4688 22.672C83.3114 21.808 84.3568 21.376 85.6048 21.376C86.9701 21.376 88.0954 21.8613 88.9808 22.832L87.7808 24.128C87.1088 23.424 86.3781 23.072 85.5888 23.072C84.8954 23.072 84.3141 23.3333 83.8448 23.856C83.3861 24.3787 83.1568 25.0133 83.1568 25.76V25.792C83.1568 26.56 83.3914 27.2053 83.8608 27.728C84.3408 28.2507 84.9488 28.512 85.6848 28.512C86.4634 28.512 87.1941 28.16 87.8768 27.456L89.0448 28.608C88.5861 29.12 88.0848 29.5147 87.5408 29.792C87.0074 30.0587 86.3568 30.192 85.5888 30.192Z" fill="#DC0000"/>
</svg>
