<svg width="24" height="24" viewBox="0 0 24 24" fill="none" xmlns="http://www.w3.org/2000/svg">
<g clip-path="url(#clip0_28_36)">
<path fill-rule="evenodd" clip-rule="evenodd" d="M17.3724 20.9467H6.6492C6.0624 20.9467 5.562 20.5138 5.466 19.9213L4.0332 11.134H20.1828L18.552 19.9483C18.444 20.5272 17.9496 20.9467 17.3724 20.9467ZM20.4 8.68068L16.1676 1.21319C15.8376 0.631794 15.1104 0.43073 14.5392 0.764366C13.962 1.10045 13.764 1.85236 14.0964 2.43868L17.628 8.68068H6.3708L9.90841 2.44337C10.2384 1.85951 10.0452 1.11387 9.4764 0.772862L9.4656 0.76671C8.8932 0.425718 8.1576 0.62453 7.8264 1.21085L3.6 8.68068H1.2C0.5364 8.68068 0 9.23026 0 9.90734C0 10.5844 0.5364 11.134 1.2 11.134H1.5996L3.2652 21.3504C3.4584 22.5328 4.4592 23.4 5.6328 23.4H18.366C19.5396 23.4 20.5416 22.5328 20.7336 21.3504L22.3992 11.134H22.8C23.4624 11.134 24 10.5844 24 9.90734C24 9.23026 23.4624 8.68068 22.8 8.68068H20.4Z" fill="white"/>
</g>
<defs>
<clipPath id="clip0_28_36">
<rect width="24" height="24" fill="white"/>
</clipPath>
</defs>
</svg>
