<svg width="99" height="30" viewBox="0 0 99 30" fill="none" xmlns="http://www.w3.org/2000/svg">
<rect width="99" height="30" rx="10" fill="#DC0000"/>
<g clip-path="url(#clip0_28_33)">
<path fill-rule="evenodd" clip-rule="evenodd" d="M27.3724 23.9467H16.6492C16.0624 23.9467 15.562 23.5138 15.466 22.9213L14.0332 14.134H30.1828L28.552 22.9483C28.444 23.5272 27.9496 23.9467 27.3724 23.9467ZM30.4 11.6807L26.1676 4.21319C25.8376 3.63179 25.1104 3.43073 24.5392 3.76437C23.962 4.10045 23.764 4.85236 24.0964 5.43868L27.628 11.6807H16.3708L19.9084 5.44337C20.2384 4.85951 20.0452 4.11387 19.4764 3.77286L19.4656 3.76671C18.8932 3.42572 18.1576 3.62453 17.8264 4.21085L13.6 11.6807H11.2C10.5364 11.6807 10 12.2303 10 12.9073C10 13.5844 10.5364 14.134 11.2 14.134H11.5996L13.2652 24.3504C13.4584 25.5328 14.4592 26.4 15.6328 26.4H28.366C29.5396 26.4 30.5416 25.5328 30.7336 24.3504L32.3992 14.134H32.8C33.4624 14.134 34 13.5844 34 12.9073C34 12.2303 33.4624 11.6807 32.8 11.6807H30.4Z" fill="white"/>
</g>
<defs>
<clipPath id="clip0_28_33">
<rect width="24" height="24" fill="white" transform="translate(10 3)"/>
</clipPath>
</defs>
</svg>
