<svg width="31" height="32" viewBox="0 0 31 32" fill="none" xmlns="http://www.w3.org/2000/svg">
<g clip-path="url(#clip0_25_3)">
<path fill-rule="evenodd" clip-rule="evenodd" d="M26.6576 11.5885H14.3387H11.1358L11.395 12.8646C16.1891 13.1901 19.7231 15.2786 21.458 17.3125C22.1253 18.0938 22.5924 18.9297 22.8362 19.7448C23.1929 20.9375 23.1056 22.099 22.5462 23.1198C22.4743 23.2526 22.3947 23.3802 22.31 23.5052C22.4153 23.7344 22.4948 23.9635 22.559 24.1849C22.5795 24.2448 22.6001 24.3073 22.6154 24.3698H22.618C22.7001 24.6641 22.7412 24.9505 22.7412 25.2344C22.7412 25.3333 22.7361 25.3021 22.7309 25.388L22.7335 25.4583H22.7412C22.7412 25.3828 22.7412 25.4115 22.7412 25.4583C22.7412 25.5313 22.7386 25.6068 22.7335 25.6823H26.6422L29.8631 11.5938H26.6576V11.5885ZM0.818694 28.3542C6.94991 28.3438 13.0786 28.3359 19.2098 28.3542C19.5742 28.3568 19.8745 28.6589 19.8745 29.0286C19.8745 30.0339 19.4587 32.0026 17.2182 32.0026C12.4164 32.0026 7.61462 32.0026 2.81282 32.0026C0.572316 32.0026 0.156553 30.0365 0.156553 29.0286C0.153986 28.6563 0.45426 28.3542 0.818694 28.3542ZM14.5491 17.987C15.1138 17.987 15.5706 18.4505 15.5706 19.0234C15.5706 19.5964 15.1138 20.0599 14.5491 20.0599C13.9845 20.0599 13.5277 19.5964 13.5277 19.0234C13.5277 18.4505 13.9845 17.987 14.5491 17.987ZM5.64103 18.0599C6.20565 18.0599 6.66247 18.5234 6.66247 19.0964C6.66247 19.6693 6.20565 20.1328 5.64103 20.1328C5.07641 20.1328 4.61959 19.6693 4.61959 19.0964C4.61959 18.5234 5.07641 18.0599 5.64103 18.0599ZM10.0579 17.0703C10.6225 17.0703 11.0793 17.5339 11.0793 18.1068C11.0793 18.6797 10.6225 19.1432 10.0579 19.1432C9.49325 19.1432 9.03643 18.6797 9.03643 18.1068C9.03899 17.5339 9.49582 17.0703 10.0579 17.0703ZM18.3423 22.4323H1.90173C0.85719 22.4323 0 21.5651 0 20.5052C0 17.7604 5.39209 15.7656 9.91672 15.7188C18.8248 15.6276 22.8208 22.4323 18.3423 22.4323ZM19.8309 25.0755C19.8591 25.125 19.8745 25.1745 19.8745 25.2318C19.8745 25.2656 19.8719 25.3047 19.8719 25.3438C19.8745 25.3828 19.8745 25.4193 19.8745 25.4557C19.8745 25.5104 19.8591 25.5625 19.8309 25.612C19.6794 26.2813 19.0738 27.1563 17.2182 27.1563C12.4164 27.1563 7.61462 27.1563 2.81282 27.1563C0.954715 27.1563 0.351602 26.2813 0.200182 25.612C0.171951 25.5625 0.156553 25.513 0.156553 25.4557C0.156553 25.4219 0.159119 25.3828 0.159119 25.3438C0.156553 25.3047 0.156553 25.2682 0.156553 25.2318C0.156553 25.1771 0.171951 25.125 0.200182 25.0755C0.351602 24.4063 0.954715 23.5313 2.81282 23.5313H10.2734L13.0247 26.4141L15.7579 23.5313H17.2208C19.0763 23.5339 19.6794 24.4089 19.8309 25.0755ZM22.7309 25.4557C22.7361 25.6823 22.7386 25.5391 22.7386 25.4557H22.7309ZM11.1589 5.80729H19.2201L20.0978 1.84896C20.3519 0.893229 21.091 0.359375 22.3947 0C23.5009 0 24.607 0 25.7106 0C26.2162 0.101563 26.5087 0.458333 26.5857 1.07292C26.5857 1.41927 26.5857 1.76302 26.5857 2.10938C26.4189 2.67448 26.0827 2.90365 25.5643 2.9974H22.7977L22.21 5.80729H29.8374C30.479 5.80729 31 6.33854 31 6.98698V8.32813C31 8.97917 30.4764 9.50781 29.8374 9.50781H11.1589C10.5173 9.50781 9.99627 8.97656 9.99627 8.32813V6.98698C9.99627 6.33854 10.5198 5.80729 11.1589 5.80729ZM22.1689 31.7422H23.5573H24.3581C25.2922 31.5391 25.9416 31.0911 26.2162 30.151L26.4266 27.9167H22.5641C22.6796 28.2682 22.7412 28.6406 22.7412 29.0286C22.7412 29.7474 22.6103 30.7552 22.1689 31.7422Z" fill="#DC0000"/>
</g>
<defs>
<clipPath id="clip0_25_3">
<rect width="31" height="32" fill="white"/>
</clipPath>
</defs>
</svg>
