<svg width="32" height="32" viewBox="0 0 32 32" fill="none" xmlns="http://www.w3.org/2000/svg">
<g clip-path="url(#clip0_25_35)">
<path d="M26.7403 10.7606C26.5692 10.589 26.3368 10.4927 26.0945 10.4927H24.4201C23.7777 8.36814 21.7949 6.84882 19.5175 6.84882H16.9116V4.05105L21.7344 2.60116C22.2168 2.45616 22.4903 1.94759 22.3453 1.46528C22.2003 0.9829 21.6915 0.70921 21.2093 0.854524L15.7371 2.49972C15.3516 2.61566 15.0876 2.97048 15.0876 3.37304V6.84882H12.4821C10.2048 6.84882 8.22188 8.36814 7.57956 10.4927H5.90542C5.66311 10.4927 5.43073 10.5892 5.2596 10.7606C5.08854 10.9322 4.99266 11.1648 4.99341 11.4071L5.00091 14.1337C5.00229 14.6364 5.41023 15.0433 5.91292 15.0433H6.60224L8.40363 29.7174C8.53038 30.9774 9.65895 32 10.9261 32H21.0735C22.3629 32 23.4686 30.9984 23.5969 29.7172L25.3974 15.0433H26.087C26.5897 15.0433 26.9976 14.6364 26.999 14.1337L27.0065 11.4071C27.0072 11.1647 26.9115 10.9322 26.7403 10.7606ZM21.7849 29.5064L21.7823 29.5316C21.7499 29.8749 21.4186 30.176 21.0735 30.176H10.926C10.5814 30.176 10.2505 29.8749 10.218 29.5316C10.2172 29.5232 10.2163 29.5147 10.2153 29.5064L9.79082 26.0488H22.2092L21.7849 29.5064ZM22.4329 24.2248H9.56732L9.38101 22.7078H17.6347C18.1384 22.7078 18.5467 22.2994 18.5467 21.7957C18.5467 21.2921 18.1384 20.8837 17.6347 20.8837H9.15701L8.97751 19.422H23.0223L22.4329 24.2248ZM23.2462 17.5979H8.75357L8.43994 15.0432H23.5597L23.2462 17.5979ZM25.1777 13.2191H24.5906H7.40906H6.82236L6.81993 12.3166H8.312C8.76838 12.3166 9.15451 11.9792 9.21582 11.5269C9.43607 9.89978 10.8404 8.67277 12.4824 8.67277H19.5178C21.1599 8.67277 22.5642 9.89978 22.7844 11.5269C22.8456 11.9793 23.2317 12.3166 23.6882 12.3166H25.1803L25.1777 13.2191Z" fill="#DC0000"/>
<path d="M26.7403 10.7606C26.5692 10.589 26.3368 10.4927 26.0945 10.4927H24.4201C23.7777 8.36814 21.7949 6.84882 19.5175 6.84882H16.9116V4.05105L21.7344 2.60116C22.2168 2.45616 22.4903 1.94759 22.3453 1.46528C22.2003 0.9829 21.6915 0.70921 21.2093 0.854524L15.7371 2.49972C15.3516 2.61566 15.0876 2.97048 15.0876 3.37304V6.84882H12.4821C10.2048 6.84882 8.22188 8.36814 7.57956 10.4927H5.90542C5.66311 10.4927 5.43073 10.5892 5.2596 10.7606C5.08854 10.9322 4.99266 11.1648 4.99341 11.4071L5.00091 14.1337C5.00229 14.6364 5.41023 15.0433 5.91292 15.0433H6.60224L8.40363 29.7174C8.53038 30.9774 9.65895 32 10.9261 32H21.0735C22.3629 32 23.4686 30.9984 23.5969 29.7172L25.3974 15.0433H26.087C26.5897 15.0433 26.9976 14.6364 26.999 14.1337L27.0065 11.4071C27.0072 11.1647 26.9115 10.9322 26.7403 10.7606ZM21.7849 29.5064L21.7823 29.5316C21.7499 29.8749 21.4186 30.176 21.0735 30.176H10.926C10.5814 30.176 10.2505 29.8749 10.218 29.5316C10.2172 29.5232 10.2163 29.5147 10.2153 29.5064L9.79082 26.0488H22.2092L21.7849 29.5064ZM22.4329 24.2248H9.56732L9.38101 22.7078H17.6347C18.1384 22.7078 18.5467 22.2994 18.5467 21.7957C18.5467 21.2921 18.1384 20.8837 17.6347 20.8837H9.15701L8.97751 19.422H23.0223L22.4329 24.2248ZM23.2462 17.5979H8.75357L8.43994 15.0432H23.5597L23.2462 17.5979ZM25.1777 13.2191H24.5906H7.40906H6.82236L6.81993 12.3166H8.312C8.76838 12.3166 9.15451 11.9792 9.21582 11.5269C9.43607 9.89978 10.8404 8.67277 12.4824 8.67277H19.5178C21.1599 8.67277 22.5642 9.89978 22.7844 11.5269C22.8456 11.9793 23.2317 12.3166 23.6882 12.3166H25.1803L25.1777 13.2191Z" stroke="#DC0000"/>
<path d="M21.265 21.6177C21.2531 21.5594 21.2358 21.5019 21.213 21.4472C21.1902 21.3916 21.1619 21.3387 21.1291 21.2895C21.0954 21.2393 21.058 21.1927 21.016 21.1508C20.9741 21.1089 20.9267 21.0705 20.8774 21.0378C20.8272 21.005 20.7744 20.9766 20.7197 20.9538C20.6649 20.931 20.6075 20.9137 20.5491 20.9019C20.4315 20.8782 20.3102 20.8782 20.1925 20.9019C20.1341 20.9138 20.0767 20.931 20.0219 20.9538C19.9672 20.9765 19.9143 21.005 19.8642 21.0378C19.8149 21.0705 19.7675 21.1089 19.7255 21.1508C19.6836 21.1927 19.6453 21.2394 19.6125 21.2895C19.5797 21.3387 19.5513 21.3916 19.5285 21.4472C19.5057 21.502 19.4884 21.5594 19.4765 21.6177C19.4647 21.6762 19.4583 21.7363 19.4583 21.7956C19.4583 21.8548 19.4647 21.9151 19.4765 21.9734C19.4884 22.0318 19.5057 22.0893 19.5285 22.1449C19.5513 22.1997 19.5796 22.2526 19.6124 22.3018C19.6452 22.352 19.6835 22.3986 19.7255 22.4405C19.7674 22.4824 19.8148 22.5207 19.8641 22.5535C19.9143 22.5872 19.9672 22.6147 20.0218 22.6375C20.0765 22.6603 20.134 22.6784 20.1924 22.6894C20.2517 22.7012 20.311 22.7076 20.3712 22.7076C20.611 22.7076 20.8454 22.6101 21.016 22.4404C21.0579 22.3985 21.0953 22.3519 21.129 22.3017C21.1619 22.2525 21.1902 22.1996 21.2129 22.1449C21.2357 22.0892 21.253 22.0318 21.2649 21.9734C21.2768 21.915 21.2822 21.8549 21.2822 21.7956C21.2823 21.7363 21.2769 21.6761 21.265 21.6177Z" fill="#DC0000"/>
<path d="M21.265 21.6177C21.2531 21.5594 21.2358 21.5019 21.213 21.4472C21.1902 21.3916 21.1619 21.3387 21.1291 21.2895C21.0954 21.2393 21.058 21.1927 21.016 21.1508C20.9741 21.1089 20.9267 21.0705 20.8774 21.0378C20.8272 21.005 20.7744 20.9766 20.7197 20.9538C20.6649 20.931 20.6075 20.9137 20.5491 20.9019C20.4315 20.8782 20.3102 20.8782 20.1925 20.9019C20.1341 20.9138 20.0767 20.931 20.0219 20.9538C19.9672 20.9765 19.9143 21.005 19.8642 21.0378C19.8149 21.0705 19.7675 21.1089 19.7255 21.1508C19.6836 21.1927 19.6453 21.2394 19.6125 21.2895C19.5797 21.3387 19.5513 21.3916 19.5285 21.4472C19.5057 21.502 19.4884 21.5594 19.4765 21.6177C19.4647 21.6762 19.4583 21.7363 19.4583 21.7956C19.4583 21.8548 19.4647 21.9151 19.4765 21.9734C19.4884 22.0318 19.5057 22.0893 19.5285 22.1449C19.5513 22.1997 19.5796 22.2526 19.6124 22.3018C19.6452 22.352 19.6835 22.3986 19.7255 22.4405C19.7674 22.4824 19.8148 22.5207 19.8641 22.5535C19.9143 22.5872 19.9672 22.6147 20.0218 22.6375C20.0765 22.6603 20.134 22.6784 20.1924 22.6894C20.2517 22.7012 20.311 22.7076 20.3712 22.7076C20.611 22.7076 20.8454 22.6101 21.016 22.4404C21.0579 22.3985 21.0953 22.3519 21.129 22.3017C21.1619 22.2525 21.1902 22.1996 21.2129 22.1449C21.2357 22.0892 21.253 22.0318 21.2649 21.9734C21.2768 21.915 21.2822 21.8549 21.2822 21.7956C21.2823 21.7363 21.2769 21.6761 21.265 21.6177Z" stroke="#DC0000"/>
<path d="M25.0809 0.733643C25.0699 0.675268 25.0517 0.61783 25.0289 0.563205C25.0061 0.507579 24.9778 0.454704 24.945 0.405453C24.9122 0.355265 24.8739 0.308765 24.8319 0.266827C24.79 0.224889 24.7435 0.186452 24.6933 0.153764C24.6441 0.120951 24.5912 0.0926384 24.5356 0.0698882C24.4808 0.0470756 24.4234 0.0288254 24.365 0.0178878C24.2474 -0.00579985 24.1269 -0.00579985 24.0093 0.0178878C23.9509 0.0288254 23.8935 0.0470756 23.8387 0.0698882C23.7831 0.0927009 23.7302 0.120951 23.681 0.153764C23.6308 0.186514 23.5843 0.224889 23.5424 0.266827C23.3727 0.436391 23.2751 0.671643 23.2751 0.91152C23.2751 1.1514 23.3727 1.38665 23.5424 1.55634C23.5843 1.59827 23.6308 1.63659 23.681 1.6694C23.7302 1.70215 23.7831 1.73053 23.8387 1.75328C23.8935 1.77609 23.9509 1.79434 24.0093 1.80515C24.0677 1.81709 24.1279 1.8234 24.1871 1.8234C24.2464 1.8234 24.3066 1.81709 24.365 1.80515C24.4234 1.79428 24.4808 1.77603 24.5356 1.75328C24.5912 1.73046 24.6441 1.70209 24.6933 1.6694C24.7435 1.63659 24.79 1.59827 24.8319 1.55634C24.8739 1.5144 24.9122 1.4679 24.945 1.41765C24.9778 1.3684 25.0061 1.31559 25.0289 1.25996C25.0517 1.20521 25.0699 1.14777 25.0809 1.0894C25.0928 1.03102 25.0991 0.970833 25.0991 0.911582C25.0991 0.852269 25.0927 0.792019 25.0809 0.733643Z" fill="#DC0000"/>
<path d="M25.0809 0.733643C25.0699 0.675268 25.0517 0.61783 25.0289 0.563205C25.0061 0.507579 24.9778 0.454704 24.945 0.405453C24.9122 0.355265 24.8739 0.308765 24.8319 0.266827C24.79 0.224889 24.7435 0.186452 24.6933 0.153764C24.6441 0.120951 24.5912 0.0926384 24.5356 0.0698882C24.4808 0.0470756 24.4234 0.0288254 24.365 0.0178878C24.2474 -0.00579985 24.1269 -0.00579985 24.0093 0.0178878C23.9509 0.0288254 23.8935 0.0470756 23.8387 0.0698882C23.7831 0.0927009 23.7302 0.120951 23.681 0.153764C23.6308 0.186514 23.5843 0.224889 23.5424 0.266827C23.3727 0.436391 23.2751 0.671643 23.2751 0.91152C23.2751 1.1514 23.3727 1.38665 23.5424 1.55634C23.5843 1.59827 23.6308 1.63659 23.681 1.6694C23.7302 1.70215 23.7831 1.73053 23.8387 1.75328C23.8935 1.77609 23.9509 1.79434 24.0093 1.80515C24.0677 1.81709 24.1279 1.8234 24.1871 1.8234C24.2464 1.8234 24.3066 1.81709 24.365 1.80515C24.4234 1.79428 24.4808 1.77603 24.5356 1.75328C24.5912 1.73046 24.6441 1.70209 24.6933 1.6694C24.7435 1.63659 24.79 1.59827 24.8319 1.55634C24.8739 1.5144 24.9122 1.4679 24.945 1.41765C24.9778 1.3684 25.0061 1.31559 25.0289 1.25996C25.0517 1.20521 25.0699 1.14777 25.0809 1.0894C25.0928 1.03102 25.0991 0.970833 25.0991 0.911582C25.0991 0.852269 25.0927 0.792019 25.0809 0.733643Z" stroke="#DC0000"/>
</g>
<defs>
<clipPath id="clip0_25_35">
<rect width="32" height="32" fill="white"/>
</clipPath>
</defs>
</svg>
