<svg width="32" height="32" viewBox="0 0 32 32" fill="none" xmlns="http://www.w3.org/2000/svg">
<path fill-rule="evenodd" clip-rule="evenodd" d="M16.2964 1.80524C15.2532 1.27421 13.9881 1.78005 13.5786 2.89185L10.2239 12H5.23831C3.06853 12 1.30957 13.7909 1.30957 16V26.6666C1.30957 28.8758 3.06853 30.6666 5.23831 30.6666H24.0618C25.9229 30.6666 27.5284 29.3373 27.9081 27.4825L30.0906 16.8158C30.5989 14.3318 28.7365 12 26.2445 12H19.4962L20.4634 9.04609C21.2877 6.52816 20.1682 3.77622 17.8365 2.58926L16.2964 1.80524ZM12.6763 12.9363L15.7756 4.52155L16.6652 4.9744C17.831 5.56789 18.3908 6.94385 17.9786 8.20283L17.0116 11.1567C16.4462 12.8834 17.7085 14.6666 19.4962 14.6666H26.2445C27.0752 14.6666 27.6959 15.444 27.5266 16.272L27.3093 17.3333H22.2629C21.5396 17.3333 20.9533 17.9302 20.9533 18.6666C20.9533 19.403 21.5396 20 22.2629 20H26.7637L26.218 22.6666H22.2629C21.5396 22.6666 20.9533 23.2636 20.9533 24C20.9533 24.7364 21.5396 25.3333 22.2629 25.3333H25.6723L25.3439 26.9386C25.2174 27.5569 24.6822 28 24.0618 28H10.4766V14.6542C11.4643 14.5572 12.3228 13.8961 12.6763 12.9363ZM7.85747 14.6666H5.23831C4.51506 14.6666 3.92873 15.2636 3.92873 16V26.6666C3.92873 27.403 4.51506 28 5.23831 28H7.85747V14.6666Z" fill="#DC0000"/>
</svg>
