<svg width="197" height="97" viewBox="0 0 197 67" fill="none" xmlns="http://www.w3.org/2000/svg">
<path d="M4.08 53.6L4.08 11.84H13.2V16.46C15.76 12.98 19.1 11.24 23.22 11.24C27.22 11.24 30.66 12.74 33.54 15.74C36.42 18.74 37.86 22.82 37.86 27.98C37.86 33.1 36.42 37.16 33.54 40.16C30.7 43.12 27.26 44.6 23.22 44.6C19.22 44.6 15.88 43 13.2 39.8V53.6H4.08ZM15.3 34.4C16.82 36.04 18.68 36.86 20.88 36.86C23.08 36.86 24.94 36.04 26.46 34.4C27.98 32.72 28.74 30.54 28.74 27.86C28.74 25.26 27.98 23.14 26.46 21.5C24.94 19.82 23.08 18.98 20.88 18.98C18.68 18.98 16.82 19.82 15.3 21.5C13.82 23.14 13.08 25.3 13.08 27.98C13.08 30.58 13.82 32.72 15.3 34.4ZM44.7483 8.3V0.199999L54.3483 0.199999V8.3H44.7483ZM44.9883 44V11.84L54.1083 11.84V44H44.9883ZM61.5938 44V37.58L78.2138 19.22H62.1338V11.84L89.5538 11.84V18.26L72.8738 36.62H89.5538V44H61.5938ZM95.4023 44V37.58L112.022 19.22L95.9423 19.22V11.84H123.362V18.26L106.682 36.62H123.362V44H95.4023ZM138.031 29.72L136.651 20L136.951 19.7C143.951 19.42 147.451 17.56 147.451 14.12C147.451 12.76 146.971 11.72 146.011 11C145.051 10.24 143.691 9.86 141.931 9.86C138.691 9.86 135.691 11.24 132.931 14L127.411 7.94C131.331 3.62 136.231 1.46 142.111 1.46C146.511 1.46 150.031 2.56 152.671 4.76C155.311 6.96 156.631 10.04 156.631 14C156.631 20.44 152.691 24.46 144.811 26.06L144.151 29.72H138.031ZM136.051 44V34.4H145.771V44H136.051Z" fill="#060606"/>
<mask id="path-2-outside-1_13_2" maskUnits="userSpaceOnUse" x="95.8632" y="13.8778" width="89.6444" height="64.1913" fill="black">
<rect fill="white" x="95.8632" y="13.8778" width="89.6444" height="64.1913"/>
<path d="M137.771 60.0209C139.138 61.6078 139.969 67.2007 139.599 69.2126C139.179 71.4336 134.478 72.3227 133.211 70.3175C132.188 68.7688 131.762 65.4613 131.225 64.0066C131.134 63.7415 130.427 63.4621 129.484 63.6128C125.838 64.0683 113.038 66.0073 111.357 66.2909C110.075 66.4713 110.32 66.9277 110.279 68.0234C110.251 69.2546 110.55 73.4605 109.013 74.6188C107.409 75.7831 103.777 75.623 103.34 73.75C102.891 71.7415 102.682 66.2307 103.833 64.5601C104.743 63.2518 107.308 63.7099 107.552 62.5965C108.369 59.4533 109.899 55.0874 110.398 52.9959C112.115 46.088 114.991 38.396 115.7 36.3545C116.626 33.6795 119.61 32.6677 121.766 33.9125C123.136 34.7482 124.31 37.2394 126.707 42.0127C128.113 44.8248 130.299 50.2991 131.632 53.0495C132.714 55.2756 133.324 56.7922 134.156 58.4942C134.663 59.6102 136.403 58.4341 137.771 60.0209ZM125.056 60.5873C125.659 60.4662 126.139 60.4925 125.83 59.2909C125.611 58.3544 124.496 54.9707 123.183 51.6725C122.036 48.7012 120.293 43.5977 119.358 41.4952C119.01 40.6383 118.382 40.4884 118.065 41.5401C117.462 43.2311 114.165 57.035 113.677 59.262C113.315 60.5905 112.866 62.4729 114.135 62.1571C115.607 61.8234 123.115 61.0301 125.056 60.5873ZM163.474 41.5947C164.685 43.7412 166.663 46.8446 168.535 50.2986C170.163 53.2962 172.055 56.2023 172.215 58.0313C172.449 59.9221 171.85 62.4319 169.367 62.9222C166.613 63.4361 165.287 62.3235 164.099 60.4479C162.672 58.1836 161.631 54.8617 160.903 53.5603C160.499 52.8447 159.957 52.8921 159.218 53.0251C156.864 53.4357 151.172 54.6847 149.976 55.0623C149.378 55.2511 148.995 55.5576 148.781 57.0098C148.573 58.5298 148.58 65.6282 146.033 66.9432C143.485 68.2582 141.187 66.9575 141.098 64.3715C141.008 61.7855 141.328 59.9827 142.292 55.3933C142.917 52.4034 143.238 50.6006 144.954 43.6927C146.453 37.4182 147.91 30.6695 148.76 28.6839C149.475 26.7101 151.142 25.4721 152.986 26.2664C153.976 26.6576 155.753 29.0277 157.713 31.9279C159.827 35.0195 163.474 41.5947 163.474 41.5947ZM157.873 50.1393C158.877 49.9149 159.378 49.3933 158.558 47.8268C157.671 46.2662 153.354 37.497 152.417 36.1456C152.031 35.6333 151.668 35.392 151.356 36.5114C151.113 37.6249 149.43 47.2602 149.184 49.1248C149.025 50.4356 148.823 52.0232 150.024 51.7133C152.236 51.2468 156.66 50.3137 157.873 50.1393ZM176.955 52.4289C178.174 52.3222 179.288 52.5661 180.048 53.4552C180.871 54.2706 181.601 54.8211 181.532 57.148C181.489 58.9948 180.135 60.6832 179.075 61.049C177.811 61.4325 175.661 61.8254 174.085 60.1886C173.477 59.4909 173.008 58.0302 172.925 57.0818C172.813 55.7947 173.124 54.6753 174.44 53.3315C175.2 52.6507 175.736 52.5356 176.955 52.4289ZM176.889 17.3491C179.205 18.853 179.314 23.2121 179.198 26.567C179.143 29.8482 178.738 31.4537 178.415 34.0075C178.204 36.2786 178.109 40.6555 177.711 43.8986C177.418 46.7911 176.652 47.4042 175.777 47.549C174.423 47.6675 173.138 41.5682 172.421 38.8323C171.205 34.2971 169.191 23.7565 170.131 20.466C171.128 17.0341 173.855 15.4303 176.889 17.3491Z"/>
</mask>
<path d="M137.771 60.0209C139.138 61.6078 139.969 67.2007 139.599 69.2126C139.179 71.4336 134.478 72.3227 133.211 70.3175C132.188 68.7688 131.762 65.4613 131.225 64.0066C131.134 63.7415 130.427 63.4621 129.484 63.6128C125.838 64.0683 113.038 66.0073 111.357 66.2909C110.075 66.4713 110.32 66.9277 110.279 68.0234C110.251 69.2546 110.55 73.4605 109.013 74.6188C107.409 75.7831 103.777 75.623 103.34 73.75C102.891 71.7415 102.682 66.2307 103.833 64.5601C104.743 63.2518 107.308 63.7099 107.552 62.5965C108.369 59.4533 109.899 55.0874 110.398 52.9959C112.115 46.088 114.991 38.396 115.7 36.3545C116.626 33.6795 119.61 32.6677 121.766 33.9125C123.136 34.7482 124.31 37.2394 126.707 42.0127C128.113 44.8248 130.299 50.2991 131.632 53.0495C132.714 55.2756 133.324 56.7922 134.156 58.4942C134.663 59.6102 136.403 58.4341 137.771 60.0209ZM125.056 60.5873C125.659 60.4662 126.139 60.4925 125.83 59.2909C125.611 58.3544 124.496 54.9707 123.183 51.6725C122.036 48.7012 120.293 43.5977 119.358 41.4952C119.01 40.6383 118.382 40.4884 118.065 41.5401C117.462 43.2311 114.165 57.035 113.677 59.262C113.315 60.5905 112.866 62.4729 114.135 62.1571C115.607 61.8234 123.115 61.0301 125.056 60.5873ZM163.474 41.5947C164.685 43.7412 166.663 46.8446 168.535 50.2986C170.163 53.2962 172.055 56.2023 172.215 58.0313C172.449 59.9221 171.85 62.4319 169.367 62.9222C166.613 63.4361 165.287 62.3235 164.099 60.4479C162.672 58.1836 161.631 54.8617 160.903 53.5603C160.499 52.8447 159.957 52.8921 159.218 53.0251C156.864 53.4357 151.172 54.6847 149.976 55.0623C149.378 55.2511 148.995 55.5576 148.781 57.0098C148.573 58.5298 148.58 65.6282 146.033 66.9432C143.485 68.2582 141.187 66.9575 141.098 64.3715C141.008 61.7855 141.328 59.9827 142.292 55.3933C142.917 52.4034 143.238 50.6006 144.954 43.6927C146.453 37.4182 147.91 30.6695 148.76 28.6839C149.475 26.7101 151.142 25.4721 152.986 26.2664C153.976 26.6576 155.753 29.0277 157.713 31.9279C159.827 35.0195 163.474 41.5947 163.474 41.5947ZM157.873 50.1393C158.877 49.9149 159.378 49.3933 158.558 47.8268C157.671 46.2662 153.354 37.497 152.417 36.1456C152.031 35.6333 151.668 35.392 151.356 36.5114C151.113 37.6249 149.43 47.2602 149.184 49.1248C149.025 50.4356 148.823 52.0232 150.024 51.7133C152.236 51.2468 156.66 50.3137 157.873 50.1393ZM176.955 52.4289C178.174 52.3222 179.288 52.5661 180.048 53.4552C180.871 54.2706 181.601 54.8211 181.532 57.148C181.489 58.9948 180.135 60.6832 179.075 61.049C177.811 61.4325 175.661 61.8254 174.085 60.1886C173.477 59.4909 173.008 58.0302 172.925 57.0818C172.813 55.7947 173.124 54.6753 174.44 53.3315C175.2 52.6507 175.736 52.5356 176.955 52.4289ZM176.889 17.3491C179.205 18.853 179.314 23.2121 179.198 26.567C179.143 29.8482 178.738 31.4537 178.415 34.0075C178.204 36.2786 178.109 40.6555 177.711 43.8986C177.418 46.7911 176.652 47.4042 175.777 47.549C174.423 47.6675 173.138 41.5682 172.421 38.8323C171.205 34.2971 169.191 23.7565 170.131 20.466C171.128 17.0341 173.855 15.4303 176.889 17.3491Z" fill="#DC0000"/>
<path d="M137.771 60.0209L139.286 58.7153L139.286 58.7153L137.771 60.0209ZM139.599 69.2126L141.564 69.5842L141.566 69.5744L139.599 69.2126ZM133.211 70.3175L134.901 69.2489L134.891 69.232L134.88 69.2153L133.211 70.3175ZM131.225 64.0066L129.334 64.6589L129.341 64.679L129.349 64.699L131.225 64.0066ZM129.484 63.6128L129.732 65.5974L129.766 65.5931L129.8 65.5877L129.484 63.6128ZM111.357 66.2909L111.635 68.2714L111.662 68.2676L111.689 68.2631L111.357 66.2909ZM110.279 68.0234L108.281 67.9492L108.28 67.9629L108.28 67.9766L110.279 68.0234ZM109.013 74.6188L110.188 76.2376L110.203 76.2269L110.217 76.216L109.013 74.6188ZM103.34 73.75L101.388 74.1861L101.39 74.1952L101.392 74.2043L103.34 73.75ZM103.833 64.5601L102.191 63.4185L102.186 63.4255L103.833 64.5601ZM107.552 62.5965L105.616 62.0932L105.607 62.1307L105.598 62.1686L107.552 62.5965ZM110.398 52.9959L108.457 52.5136L108.455 52.5224L108.453 52.5312L110.398 52.9959ZM115.7 36.3545L117.589 37.0104L117.59 37.009L115.7 36.3545ZM121.766 33.9125L122.808 32.2051L122.787 32.1924L122.766 32.1803L121.766 33.9125ZM126.707 42.0127L128.496 41.118L128.494 41.1151L126.707 42.0127ZM131.632 53.0495L129.832 53.9216L129.833 53.9238L131.632 53.0495ZM134.156 58.4942L135.977 57.6667L135.965 57.6413L135.953 57.6163L134.156 58.4942ZM125.056 60.5873L124.662 58.6263L124.636 58.6315L124.611 58.6374L125.056 60.5873ZM125.83 59.2909L123.882 59.7452L123.887 59.7679L123.893 59.7904L125.83 59.2909ZM123.183 51.6725L121.318 52.393L121.321 52.4025L121.325 52.412L123.183 51.6725ZM119.358 41.4952L117.505 42.2477L117.517 42.278L117.53 42.3077L119.358 41.4952ZM118.065 41.5401L119.949 42.2118L119.965 42.1653L119.98 42.1182L118.065 41.5401ZM113.677 59.262L115.607 59.7872L115.62 59.7388L115.63 59.6899L113.677 59.262ZM114.135 62.1571L113.693 60.2065L113.672 60.2111L113.652 60.2162L114.135 62.1571ZM136.256 61.3266C136.34 61.4251 136.55 61.7744 136.791 62.4865C137.016 63.1471 137.214 63.9567 137.368 64.8113C137.69 66.6043 137.749 68.2125 137.632 68.8508L141.566 69.5744C141.818 68.2008 141.647 66.0066 141.305 64.1034C141.126 63.1099 140.884 62.098 140.579 61.2008C140.292 60.3551 139.885 59.4102 139.286 58.7153L136.256 61.3266ZM137.634 68.841C137.655 68.7251 137.7 68.794 137.453 68.9668C137.213 69.135 136.831 69.2983 136.369 69.3815C135.907 69.4645 135.487 69.4458 135.192 69.3685C134.895 69.2907 134.87 69.1994 134.901 69.2489L131.52 71.3862C132.185 72.4383 133.223 72.9877 134.177 73.2378C135.133 73.4884 136.152 73.4845 137.076 73.3183C138 73.1522 138.951 72.8021 139.75 72.2417C140.543 71.6858 141.332 70.8106 141.564 69.5842L137.634 68.841ZM134.88 69.2153C134.583 68.7662 134.286 67.8782 133.976 66.6404C133.718 65.6122 133.419 64.1756 133.101 63.3142L129.349 64.699C129.568 65.2923 129.751 66.2368 130.096 67.6132C130.388 68.78 130.816 70.3201 131.542 71.4198L134.88 69.2153ZM133.116 63.3543C132.884 62.6833 132.4 62.3064 132.138 62.136C131.831 61.9357 131.503 61.8075 131.204 61.7254C130.599 61.5589 129.896 61.5215 129.168 61.6379L129.8 65.5877C129.903 65.5713 129.987 65.5686 130.05 65.5714C130.114 65.5744 130.146 65.5828 130.143 65.5822C130.142 65.5817 130.126 65.5773 130.097 65.5652C130.07 65.5536 130.02 65.5301 129.956 65.4881C129.894 65.448 129.795 65.375 129.687 65.2574C129.582 65.1423 129.433 64.9454 129.334 64.6589L133.116 63.3543ZM129.236 61.6282C125.555 62.0881 112.727 64.0316 111.024 64.3188L111.689 68.2631C113.35 67.983 126.12 66.0486 129.732 65.5974L129.236 61.6282ZM111.078 64.3105C110.673 64.3675 110.171 64.471 109.703 64.7239C109.147 65.0245 108.715 65.4931 108.483 66.103C108.296 66.596 108.288 67.0718 108.285 67.2878C108.28 67.6379 108.291 67.6746 108.281 67.9492L112.278 68.0976C112.285 67.9217 112.285 67.7644 112.285 67.6367C112.285 67.494 112.283 67.4217 112.285 67.3438C112.286 67.2728 112.288 67.2631 112.286 67.2833C112.283 67.3058 112.27 67.3983 112.222 67.5248C112.17 67.6616 112.085 67.8164 111.955 67.9614C111.828 68.1037 111.698 68.1924 111.604 68.2433C111.516 68.2907 111.462 68.3039 111.474 68.3007C111.485 68.2977 111.533 68.2858 111.635 68.2714L111.078 64.3105ZM108.28 67.9766C108.26 68.8272 108.335 69.8853 108.22 71.1702C108.166 71.7715 108.077 72.2771 107.955 72.6512C107.822 73.0573 107.722 73.0877 107.81 73.0217L110.217 76.216C111.073 75.5708 111.512 74.6411 111.757 73.8943C112.011 73.1156 112.137 72.2755 112.204 71.5266C112.331 70.1112 112.27 68.4508 112.279 68.0702L108.28 67.9766ZM107.839 73.0001C107.727 73.081 107.484 73.2003 107.103 73.2798C106.734 73.3567 106.328 73.3764 105.959 73.3355C105.577 73.2933 105.335 73.1982 105.226 73.1318C105.139 73.0785 105.247 73.1199 105.288 73.2957L101.392 74.2043C101.919 76.4602 104.163 77.1613 105.519 77.3113C107.015 77.4767 108.868 77.1951 110.188 76.2376L107.839 73.0001ZM105.292 73.3139C105.114 72.5177 104.953 70.8093 104.986 69.0669C105.003 68.2104 105.066 67.4098 105.178 66.7587C105.234 66.4344 105.298 66.1743 105.363 65.9776C105.431 65.7716 105.48 65.6942 105.48 65.6946L102.186 63.4255C101.644 64.2121 101.384 65.2248 101.237 66.078C101.079 66.9928 101.006 68.0086 100.987 68.9897C100.95 70.9225 101.117 72.9737 101.388 74.1861L105.292 73.3139ZM105.475 65.7016C105.411 65.7938 105.372 65.7724 105.547 65.6982C105.739 65.6162 105.989 65.5507 106.408 65.4502C106.733 65.3723 107.327 65.24 107.838 65.0034C108.389 64.7477 109.253 64.1799 109.506 63.0244L105.598 62.1686C105.655 61.908 105.789 61.6915 105.936 61.5424C106.001 61.4757 106.06 61.4328 106.097 61.4084C106.116 61.396 106.13 61.3875 106.14 61.3824C106.149 61.3772 106.154 61.3748 106.154 61.3747C106.154 61.3747 106.151 61.3765 106.142 61.38C106.133 61.3835 106.121 61.3882 106.104 61.394C106.07 61.406 106.024 61.4206 105.963 61.438C105.832 61.475 105.684 61.5105 105.476 61.5603C105.11 61.6479 104.532 61.7828 103.98 62.0176C103.41 62.2602 102.71 62.6722 102.191 63.4185L105.475 65.7016ZM109.488 63.0997C109.882 61.5851 110.452 59.7576 111.003 57.9997C111.539 56.2888 112.073 54.5911 112.343 53.4606L108.453 52.5312C108.223 53.4921 107.744 55.0232 107.186 56.8039C106.643 58.5376 106.04 60.4647 105.616 62.0932L109.488 63.0997ZM112.339 53.4782C114.027 46.6848 116.857 39.1189 117.589 37.0104L113.811 35.6985C113.125 37.6731 110.202 45.4912 108.457 52.5136L112.339 53.4782ZM117.59 37.009C118.116 35.4907 119.725 35.0437 120.766 35.6447L122.766 32.1803C119.494 30.2917 115.137 31.8684 113.81 35.7L117.59 37.009ZM120.725 35.6198C120.937 35.7492 121.36 36.1702 122.119 37.4859C122.846 38.7444 123.701 40.4839 124.92 42.9102L128.494 41.1151C127.316 38.7682 126.386 36.8755 125.584 35.4861C124.815 34.154 123.966 32.9115 122.808 32.2051L120.725 35.6198ZM124.918 42.9073C125.59 44.2513 126.464 46.2643 127.36 48.3453C128.239 50.3859 129.141 52.4955 129.832 53.9216L133.431 52.1773C132.79 50.8531 131.933 48.8503 131.034 46.7632C130.152 44.7164 129.23 42.5862 128.496 41.118L124.918 42.9073ZM129.833 53.9238C130.36 55.0088 130.773 55.9219 131.164 56.7896C131.553 57.6526 131.927 58.4875 132.359 59.3721L135.953 57.6163C135.553 56.7989 135.206 56.0245 134.811 55.1472C134.418 54.2745 133.985 53.3162 133.43 52.1751L129.833 53.9238ZM132.335 59.3217C132.754 60.2447 133.503 60.7106 134.204 60.9066C134.72 61.0507 135.332 61.0651 135.51 61.0767C136.032 61.1109 136.113 61.1612 136.256 61.3266L139.286 58.7153C138.061 57.2938 136.588 57.1388 135.771 57.0853C135.279 57.0531 135.276 57.0531 135.28 57.0542C135.47 57.1072 135.811 57.3017 135.977 57.6667L132.335 59.3217ZM125.449 62.5482C125.511 62.5358 125.538 62.5317 125.644 62.5117C125.725 62.4964 125.852 62.4718 125.99 62.4351C126.243 62.3676 126.759 62.2044 127.208 61.7495C128.21 60.7351 127.919 59.3835 127.766 58.7914L123.893 59.7904C123.947 60.0011 123.92 59.9902 123.928 59.8546C123.94 59.6702 124.022 59.2836 124.362 58.9391C124.654 58.6429 124.956 58.5709 124.96 58.5701C124.972 58.5668 124.965 58.5693 124.905 58.5805C124.871 58.5869 124.751 58.6085 124.662 58.6263L125.449 62.5482ZM127.777 58.8366C127.523 57.7479 126.362 54.2499 125.042 50.9331L121.325 52.412C122.63 55.6915 123.699 58.9609 123.882 59.7452L127.777 58.8366ZM125.049 50.9521C123.969 48.1554 122.139 42.8283 121.185 40.6827L117.53 42.3077C118.446 44.3672 120.103 49.247 121.318 52.393L125.049 50.9521ZM121.211 40.7427C121.06 40.3704 120.835 39.9628 120.501 39.6121C120.175 39.2709 119.607 38.8485 118.809 38.8049C117.948 38.7578 117.279 39.1741 116.869 39.6275C116.489 40.0477 116.277 40.542 116.15 40.962L119.98 42.1182C120.011 42.0123 119.998 42.131 119.835 42.3103C119.643 42.5228 119.212 42.8329 118.591 42.7989C118.033 42.7684 117.707 42.4785 117.607 42.3736C117.498 42.2591 117.482 42.1916 117.505 42.2477L121.211 40.7427ZM116.181 40.8684C115.834 41.8405 114.827 45.8621 113.885 49.7263C112.924 53.6654 111.973 57.6946 111.723 58.8341L115.63 59.6899C115.869 58.6024 116.81 54.6161 117.771 50.6737C118.75 46.6565 119.692 42.9307 119.949 42.2118L116.181 40.8684ZM111.747 58.7367C111.581 59.3468 111.293 60.4154 111.294 61.3297C111.295 61.7381 111.342 62.606 111.957 63.3247C112.756 64.2585 113.87 64.2838 114.618 64.0979L113.652 60.2162C113.692 60.2062 113.886 60.1631 114.165 60.2244C114.48 60.2936 114.778 60.4692 114.997 60.7249C115.192 60.953 115.258 61.1664 115.278 61.2494C115.299 61.3348 115.294 61.3687 115.294 61.3226C115.294 61.2231 115.314 61.0264 115.377 60.7193C115.437 60.4268 115.518 60.1111 115.607 59.7872L111.747 58.7367ZM114.577 64.1076C115.191 63.9685 117.284 63.7033 119.674 63.3969C121.915 63.1095 124.409 62.7862 125.501 62.5372L124.611 58.6374C123.761 58.8312 121.531 59.126 119.165 59.4294C116.948 59.7137 114.551 60.012 113.693 60.2065L114.577 64.1076ZM163.474 41.5947L161.725 42.5647L161.728 42.5713L161.732 42.5778L163.474 41.5947ZM168.535 50.2986L166.777 51.2517L166.778 51.2529L168.535 50.2986ZM172.215 58.0313L170.223 58.2056L170.226 58.2412L170.231 58.2766L172.215 58.0313ZM169.367 62.9222L169.734 64.8882L169.744 64.8863L169.754 64.8843L169.367 62.9222ZM164.099 60.4479L162.407 61.5141L162.41 61.5181L164.099 60.4479ZM160.903 53.5603L162.648 52.5837L162.644 52.5771L160.903 53.5603ZM159.218 53.0251L159.561 54.9953L159.572 54.9935L159.218 53.0251ZM149.976 55.0623L149.374 53.1552L149.374 53.1552L149.976 55.0623ZM148.781 57.0098L146.803 56.7179L146.801 56.7281L146.8 56.7383L148.781 57.0098ZM146.033 66.9432L146.95 68.7203L146.95 68.7203L146.033 66.9432ZM141.098 64.3715L139.099 64.4409L139.099 64.4409L141.098 64.3715ZM142.292 55.3933L144.249 55.8043L144.249 55.803L142.292 55.3933ZM144.954 43.6927L146.895 44.175L146.897 44.1662L146.899 44.1574L144.954 43.6927ZM148.76 28.6839L150.599 29.4711L150.621 29.4185L150.641 29.3648L148.76 28.6839ZM152.986 26.2664L152.195 28.1033L152.222 28.1153L152.251 28.1264L152.986 26.2664ZM157.713 31.9279L156.056 33.0479L156.062 33.0566L157.713 31.9279ZM157.873 50.1393L158.158 52.1189L158.234 52.108L158.309 52.0912L157.873 50.1393ZM158.558 47.8268L160.33 46.8996L160.314 46.8686L160.297 46.8382L158.558 47.8268ZM152.417 36.1456L154.06 35.0058L154.038 34.9733L154.014 34.9418L152.417 36.1456ZM151.356 36.5114L149.43 35.975L149.415 36.0289L149.403 36.0835L151.356 36.5114ZM149.184 49.1248L147.201 48.8627L147.199 48.8738L147.198 48.8849L149.184 49.1248ZM150.024 51.7133L149.612 49.7564L149.568 49.7656L149.525 49.7767L150.024 51.7133ZM161.732 42.5778C163.06 44.9308 164.874 47.7409 166.777 51.2517L170.294 49.3455C168.452 45.9483 166.31 42.5517 165.215 40.6115L161.732 42.5778ZM166.778 51.2529C167.671 52.8988 168.441 54.1706 169.154 55.5311C169.863 56.8843 170.182 57.7398 170.223 58.2056L174.208 57.857C174.089 56.4938 173.382 54.9817 172.697 53.6752C172.017 52.376 171.027 50.6959 170.293 49.3443L166.778 51.2529ZM170.231 58.2766C170.314 58.952 170.231 59.6549 169.997 60.1573C169.799 60.5831 169.513 60.8546 168.979 60.9601L169.754 64.8843C171.703 64.4995 172.959 63.271 173.623 61.8466C174.251 60.4989 174.351 59.0014 174.2 57.786L170.231 58.2766ZM169 60.9561C167.952 61.1517 167.425 61 167.102 60.8242C166.723 60.6183 166.318 60.2129 165.789 59.3777L162.41 61.5181C163.069 62.5585 163.92 63.6472 165.19 64.338C166.516 65.059 168.028 65.2067 169.734 64.8882L169 60.9561ZM165.791 59.3817C165.176 58.4055 164.614 57.1472 164.086 55.8763C163.608 54.7252 163.088 53.37 162.648 52.5837L159.157 54.5368C159.446 55.052 159.81 56.0085 160.392 57.4098C160.924 58.6912 161.595 60.226 162.407 61.5141L165.791 59.3817ZM162.644 52.5771C162.21 51.8084 161.537 51.223 160.614 51.0208C159.889 50.8621 159.186 50.9987 158.864 51.0567L159.572 54.9935C159.748 54.9618 159.834 54.9503 159.884 54.9465C159.93 54.9431 159.872 54.9531 159.758 54.9282C159.625 54.899 159.471 54.834 159.333 54.7257C159.206 54.6254 159.158 54.5386 159.161 54.5434L162.644 52.5771ZM158.874 51.0549C156.503 51.4685 150.702 52.7356 149.374 53.1552L150.578 56.9694C151.641 56.6337 157.226 55.4029 159.561 54.9953L158.874 51.0549ZM149.374 53.1552C148.859 53.3176 148.146 53.6301 147.596 54.4155C147.128 55.0847 146.923 55.8999 146.803 56.7179L150.76 57.3017C150.803 57.007 150.847 56.8287 150.879 56.728C150.911 56.6293 150.919 56.6438 150.873 56.7091C150.85 56.7432 150.816 56.7846 150.771 56.8274C150.725 56.8703 150.679 56.9053 150.636 56.9324C150.556 56.9832 150.511 56.9906 150.578 56.9694L149.374 53.1552ZM146.8 56.7383C146.737 57.1972 146.689 58.0677 146.628 58.8665C146.561 59.7468 146.468 60.753 146.309 61.7355C146.149 62.7331 145.934 63.6186 145.659 64.287C145.523 64.6166 145.391 64.8461 145.278 64.9955C145.166 65.1429 145.105 65.1713 145.115 65.1661L146.95 68.7203C148.217 68.0661 148.932 66.841 149.356 65.8132C149.802 64.7333 150.076 63.5026 150.258 62.3713C150.443 61.2248 150.546 60.0892 150.616 59.17C150.692 58.1693 150.721 57.5824 150.763 57.2814L146.8 56.7383ZM145.115 65.1661C144.296 65.589 143.793 65.4669 143.588 65.357C143.402 65.2578 143.12 64.9918 143.096 64.3022L139.099 64.4409C139.165 66.3372 140.077 68.0146 141.7 68.8835C143.303 69.7417 145.222 69.6124 146.95 68.7203L145.115 65.1661ZM143.096 64.3022C143.016 61.9891 143.283 60.407 144.249 55.8043L140.334 54.9823C139.373 59.5585 139 61.5819 139.099 64.4409L143.096 64.3022ZM144.249 55.803C144.875 52.8137 145.188 51.0432 146.895 44.175L143.013 43.2104C141.287 50.158 140.96 51.9931 140.334 54.9836L144.249 55.803ZM146.899 44.1574C147.662 40.9638 148.381 37.7914 149.044 35.0503C149.718 32.2665 150.255 30.2743 150.599 29.4711L146.922 27.8967C146.416 29.0791 145.799 31.454 145.157 34.1097C144.504 36.8079 143.745 40.1472 143.009 43.228L146.899 44.1574ZM150.641 29.3648C150.884 28.6926 151.237 28.3023 151.504 28.1366C151.705 28.0117 151.895 27.9743 152.195 28.1033L153.777 24.4295C152.232 23.7643 150.667 23.9487 149.395 24.7376C148.189 25.4857 147.351 26.7013 146.88 28.0029L150.641 29.3648ZM152.251 28.1264C152.124 28.0765 152.191 28.0731 152.482 28.352C152.735 28.5937 153.052 28.9464 153.431 29.415C154.189 30.3502 155.084 31.6101 156.056 33.0479L159.37 30.808C158.382 29.3456 157.409 27.9703 156.54 26.8976C156.106 26.3622 155.671 25.8678 155.25 25.4644C154.868 25.0983 154.342 24.6519 153.721 24.4064L152.251 28.1264ZM156.062 33.0566C157.072 34.5336 158.478 36.8909 159.655 38.923C160.239 39.9299 160.757 40.8416 161.129 41.5015C161.315 41.8314 161.464 42.098 161.567 42.2818C161.618 42.3736 161.658 42.4448 161.685 42.4928C161.698 42.5168 161.708 42.535 161.715 42.5471C161.718 42.5531 161.721 42.5576 161.722 42.5606C161.723 42.5621 161.724 42.5632 161.724 42.5639C161.724 42.5642 161.724 42.5644 161.725 42.5646C161.725 42.5647 161.725 42.5647 161.725 42.5647C161.725 42.5647 161.725 42.5647 163.474 41.5947C165.223 40.6246 165.223 40.6245 165.223 40.6244C165.222 40.6244 165.222 40.6242 165.222 40.6241C165.222 40.6239 165.222 40.6235 165.222 40.6231C165.221 40.6222 165.221 40.6208 165.22 40.6192C165.218 40.6158 165.215 40.6108 165.211 40.6043C165.204 40.5913 165.194 40.5722 165.18 40.5473C165.152 40.4975 165.111 40.4244 165.059 40.3304C164.954 40.1426 164.802 39.8713 164.613 39.5364C164.235 38.8669 163.709 37.9416 163.117 36.9182C161.942 34.8899 160.468 32.4138 159.364 30.7992L156.062 33.0566ZM158.309 52.0912C158.913 51.9562 160.192 51.58 160.745 50.2581C161.263 49.0177 160.783 47.7651 160.33 46.8996L156.786 48.754C156.859 48.8941 156.907 49.0015 156.937 49.0795C156.951 49.118 156.961 49.147 156.967 49.1671C156.973 49.1873 156.974 49.1969 156.974 49.1966C156.974 49.1964 156.972 49.1845 156.97 49.1623C156.969 49.14 156.968 49.1062 156.97 49.0627C156.976 48.9726 156.998 48.8506 157.054 48.7145C157.179 48.416 157.385 48.2516 157.492 48.1874C157.573 48.1392 157.583 48.1548 157.437 48.1874L158.309 52.0912ZM160.297 46.8382C159.882 46.1092 158.62 43.6037 157.287 40.9971C156.632 39.7177 155.971 38.4345 155.413 37.3835C154.882 36.3828 154.377 35.4622 154.06 35.0058L150.773 37.2854C150.925 37.5047 151.311 38.187 151.88 39.2594C152.423 40.2815 153.072 41.5415 153.725 42.8184C155.007 45.3245 156.347 47.9837 156.819 48.8154L160.297 46.8382ZM154.014 34.9418C153.891 34.7788 153.684 34.5178 153.408 34.2892C153.163 34.086 152.553 33.6482 151.684 33.7242C150.741 33.8068 150.185 34.4225 149.931 34.8069C149.678 35.1891 149.53 35.6161 149.43 35.975L153.283 37.0477C153.339 36.847 153.353 36.8844 153.268 37.013C153.181 37.1438 152.799 37.642 152.033 37.709C151.342 37.7694 150.915 37.4181 150.856 37.3693C150.766 37.295 150.749 37.2563 150.819 37.3494L154.014 34.9418ZM149.403 36.0835C149.146 37.2567 147.454 46.9477 147.201 48.8627L151.166 49.3868C151.406 47.5727 153.079 37.993 153.31 36.9393L149.403 36.0835ZM147.198 48.8849C147.132 49.4272 146.986 50.4728 147.117 51.329C147.182 51.7572 147.371 52.553 148.066 53.146C148.875 53.8354 149.838 53.8269 150.524 53.65L149.525 49.7767C149.56 49.7677 149.71 49.7335 149.932 49.7668C150.177 49.8034 150.438 49.9115 150.661 50.1019C151.062 50.4434 151.085 50.8185 151.071 50.7246C151.064 50.6805 151.055 50.5408 151.074 50.2624C151.093 49.9961 151.128 49.7063 151.169 49.3647L147.198 48.8849ZM150.437 53.6703C152.702 53.1925 157.029 52.2812 158.158 52.1189L157.588 48.1596C156.291 48.3462 151.77 49.3011 149.612 49.7564L150.437 53.6703ZM180.048 53.4552L178.528 54.7551L178.582 54.8175L178.64 54.8752L180.048 53.4552ZM181.532 57.148L179.533 57.0883L179.532 57.1012L181.532 57.148ZM179.075 61.049L179.656 62.9627L179.691 62.9518L179.727 62.9396L179.075 61.049ZM174.085 60.1886L172.576 61.5014L172.609 61.5396L172.644 61.5761L174.085 60.1886ZM174.44 53.3315L173.105 51.8422L173.057 51.8857L173.011 51.9322L174.44 53.3315ZM176.889 17.3491L177.979 15.6718L177.969 15.6652L177.958 15.6587L176.889 17.3491ZM179.198 26.567L177.199 26.4979L177.198 26.5159L177.198 26.534L179.198 26.567ZM178.415 34.0075L176.431 33.7569L176.427 33.7897L176.424 33.8226L178.415 34.0075ZM177.711 43.8986L175.726 43.6545L175.723 43.6757L175.721 43.697L177.711 43.8986ZM175.777 47.549L175.952 49.5414L176.028 49.5347L176.104 49.5221L175.777 47.549ZM172.421 38.8323L174.356 38.3252L174.353 38.3144L172.421 38.8323ZM170.131 20.466L168.211 19.9082L168.208 19.9162L170.131 20.466ZM177.129 54.4213C178.014 54.3439 178.355 54.5527 178.528 54.7551L181.568 52.1553C180.221 50.5795 178.335 50.3005 176.781 50.4365L177.129 54.4213ZM178.64 54.8752C179.156 55.3868 179.254 55.4739 179.351 55.6601C179.418 55.787 179.561 56.1333 179.533 57.0883L183.531 57.2076C183.572 55.8357 183.385 54.7434 182.898 53.8095C182.441 52.9349 181.763 52.3391 181.457 52.0352L178.64 54.8752ZM179.532 57.1012C179.522 57.5634 179.338 58.0789 179.032 58.5271C178.696 59.02 178.402 59.1653 178.422 59.1584L179.727 62.9396C180.807 62.5669 181.72 61.6851 182.337 60.7806C182.984 59.8314 183.499 58.5793 183.531 57.1947L179.532 57.1012ZM178.493 59.1352C177.299 59.4979 176.235 59.5386 175.525 58.8011L172.644 61.5761C175.087 64.1123 178.323 63.3672 179.656 62.9627L178.493 59.1352ZM175.593 58.8758C175.528 58.8003 175.361 58.5298 175.192 58.0576C175.034 57.6133 174.942 57.1796 174.918 56.9075L170.933 57.2561C170.992 57.9325 171.176 58.7033 171.425 59.4008C171.663 60.0704 172.034 60.8792 172.576 61.5014L175.593 58.8758ZM174.918 56.9075C174.881 56.4876 174.92 56.1974 175.02 55.9303C175.125 55.649 175.349 55.262 175.869 54.7308L173.011 51.9322C172.216 52.7448 171.626 53.5894 171.275 54.5256C170.918 55.4759 170.857 56.3889 170.933 57.2561L174.918 56.9075ZM175.775 54.8208C176.004 54.6157 176.096 54.5829 176.158 54.5621C176.291 54.5179 176.514 54.4751 177.129 54.4213L176.781 50.4365C176.177 50.4894 175.523 50.5575 174.892 50.7677C174.192 51.0013 173.636 51.3665 173.105 51.8422L175.775 54.8208ZM175.8 19.0265C176.235 19.3085 176.709 20.0556 176.987 21.6144C177.249 23.0915 177.256 24.8424 177.199 26.4979L181.196 26.6362C181.255 24.9368 181.266 22.8306 180.925 20.9135C180.598 19.078 179.86 16.8936 177.979 15.6718L175.8 19.0265ZM177.198 26.534C177.146 29.6701 176.775 31.0319 176.431 33.7569L180.399 34.2582C180.7 31.8755 181.141 30.0263 181.197 26.6001L177.198 26.534ZM176.424 33.8226C176.314 35.0066 176.234 36.7349 176.137 38.4766C176.037 40.2596 175.916 42.1055 175.726 43.6545L179.696 44.1427C179.904 42.4486 180.03 40.4844 180.13 38.7004C180.233 36.8752 180.306 35.2795 180.407 34.1924L176.424 33.8226ZM175.721 43.697C175.584 45.045 175.359 45.5477 175.272 45.6845C175.248 45.7221 175.271 45.6752 175.357 45.6223C175.436 45.5734 175.489 45.5695 175.451 45.5758L176.104 49.5221C177.007 49.3726 177.961 48.9154 178.652 47.8239C179.24 46.8948 179.544 45.6447 179.7 44.1002L175.721 43.697ZM175.603 45.5566C176.253 45.4997 176.627 45.8476 176.664 45.8833C176.711 45.9283 176.661 45.893 176.543 45.6731C176.314 45.2485 176.05 44.5601 175.769 43.6632C175.206 41.8681 174.741 39.7969 174.356 38.3252L170.486 39.3395C170.818 40.6037 171.354 42.95 171.951 44.8589C172.251 45.814 172.606 46.7992 173.022 47.5704C173.225 47.9484 173.504 48.3915 173.883 48.7581C174.252 49.1153 174.963 49.6278 175.952 49.5414L175.603 45.5566ZM174.353 38.3144C173.766 36.1252 172.973 32.4312 172.446 28.8879C172.182 27.1175 171.99 25.4198 171.919 23.987C171.844 22.4883 171.917 21.498 172.054 21.0158L168.208 19.9162C167.876 21.0792 167.847 22.6404 167.924 24.1853C168.004 25.796 168.215 27.6339 168.489 29.4769C169.038 33.1603 169.86 37.0042 170.489 39.3502L174.353 38.3144ZM172.052 21.0238C172.448 19.6591 173.102 18.9579 173.637 18.6915C174.084 18.4694 174.779 18.3807 175.821 19.0396L177.958 15.6587C175.966 14.3988 173.78 14.1525 171.855 15.1105C170.019 16.0243 168.811 17.841 168.211 19.9082L172.052 21.0238Z" fill="white" mask="url(#path-2-outside-1_13_2)"/>
</svg>
