<svg width="27" height="27" viewBox="0 0 27 27" fill="none" xmlns="http://www.w3.org/2000/svg">
<path d="M2.22414 5.24426C2.22414 16.1169 11.0382 24.931 21.9109 24.931C22.4014 24.931 22.8878 24.9131 23.3694 24.8778C23.922 24.8373 24.1983 24.8171 24.4499 24.6723C24.6582 24.5524 24.8557 24.3398 24.9601 24.1232C25.0862 23.8619 25.0862 23.5569 25.0862 22.9471V19.3688C25.0862 18.856 25.0862 18.5995 25.0017 18.3798C24.9273 18.1856 24.8061 18.0127 24.6492 17.8763C24.4715 17.7219 24.2304 17.6342 23.7485 17.459L19.6755 15.9779C19.1148 15.774 18.8343 15.672 18.5684 15.6893C18.3338 15.7045 18.1081 15.7847 17.9163 15.9206C17.6988 16.0747 17.5454 16.3305 17.2384 16.8422L16.1954 18.5805C12.8297 17.0562 10.1013 14.3242 8.57471 10.9598L10.313 9.91678C10.8247 9.60981 11.0805 9.45631 11.2346 9.23884C11.3705 9.04708 11.4506 8.82137 11.4659 8.58682C11.4831 8.32082 11.3812 8.04045 11.1773 7.47972L9.69621 3.40667C9.52095 2.92472 9.43332 2.68374 9.27889 2.50602C9.14247 2.34902 8.96958 2.22792 8.77541 2.15337C8.55561 2.06897 8.2992 2.06897 7.78638 2.06897H4.20807C3.59825 2.06897 3.29333 2.06897 3.0319 2.19503C2.81537 2.29944 2.60281 2.49701 2.48286 2.70534C2.33804 2.95687 2.31781 3.23318 2.27734 3.78582C2.24208 4.26736 2.22414 4.75371 2.22414 5.24426Z" stroke="#DC0000" stroke-width="2" stroke-linecap="round" stroke-linejoin="round"/>
</svg>
