<svg width="32" height="32" viewBox="0 0 32 32" fill="none" xmlns="http://www.w3.org/2000/svg">
<g clip-path="url(#clip0_19_11)">
<path fill-rule="evenodd" clip-rule="evenodd" d="M10.2275 2.29193C9.82058 3.00402 9.45337 3.88613 9.10378 4.92647C6.40352 12.2165 2.22662 22.8748 0.210276 27.9922C-0.705423 30.316 1.52505 32.6423 3.89611 31.8374C9.06259 30.0834 19.7497 26.4797 27.055 24.1848L27.0772 24.1776C28.1254 23.8299 29.0098 23.4731 29.7197 23.079C30.4222 22.689 31.0507 22.2098 31.473 21.5719C32.4369 20.1166 31.9028 18.5928 31.2653 17.4151C27.2547 10.0057 22.2411 4.79826 15.9803 0.834843C15.3824 0.456376 14.7129 0.134978 13.9897 0.0333744C13.2144 -0.0755318 12.4532 0.0799452 11.7682 0.531452C11.1269 0.954176 10.6329 1.58257 10.2275 2.29193ZM20.3794 11.8461C18.0572 9.37672 15.5286 7.29 12.2466 4.87878C12.4323 4.41403 12.6103 4.03918 12.7807 3.74097C13.0637 3.2457 13.2782 3.04677 13.3891 2.97363C13.4564 2.92928 13.4912 2.92037 13.5795 2.93275C13.7195 2.95244 13.9809 3.03802 14.4049 3.30639C20.2366 6.9982 24.9044 11.8312 28.6794 18.8052C29.2052 19.7767 29.0354 19.9448 29.0216 19.9583C28.9605 20.0504 28.7792 20.2493 28.2897 20.5212C28.0111 20.6758 27.663 20.8379 27.2321 21.0089C24.7959 17.1487 22.7093 14.3238 20.3794 11.8461ZM18.2354 13.8483C20.2764 16.0186 22.1524 18.5129 24.3621 21.9652C17.1616 24.2612 7.70218 27.4519 2.9486 29.0657L2.94622 29.0665L2.94431 29.0646L2.94517 29.0624C4.80066 24.3533 8.49704 14.9233 11.1884 7.74281C14.0573 9.88215 16.2403 11.7268 18.2354 13.8483ZM12.8999 17.5683C14.5227 17.5683 15.8381 16.2574 15.8381 14.6402C15.8381 13.0231 14.5227 11.7122 12.8999 11.7122C11.2772 11.7122 9.96173 13.0231 9.96173 14.6402C9.96173 16.2574 11.2772 17.5683 12.8999 17.5683ZM12.8999 21.9603C12.8999 23.5775 11.5844 24.8884 9.96173 24.8884C8.33902 24.8884 7.02355 23.5775 7.02355 21.9603C7.02355 20.3432 8.33902 19.0323 9.96173 19.0323C11.5844 19.0323 12.8999 20.3432 12.8999 21.9603ZM17.3072 23.4244C18.9299 23.4244 20.2454 22.1135 20.2454 20.4963C20.2454 18.8792 18.9299 17.5683 17.3072 17.5683C15.6844 17.5683 14.369 18.8792 14.369 20.4963C14.369 22.1135 15.6844 23.4244 17.3072 23.4244Z" fill="#DC0000"/>
</g>
<defs>
<clipPath id="clip0_19_11">
<rect width="32" height="32" fill="white"/>
</clipPath>
</defs>
</svg>
