<svg width="32" height="32" viewBox="0 0 32 32" fill="none" xmlns="http://www.w3.org/2000/svg">
<path fill-rule="evenodd" clip-rule="evenodd" d="M13.5162 0.166349C13.0222 0.42395 12.7792 0.891202 12.7272 1.41969C12.7048 1.67534 12.6712 1.92917 12.6255 2.18197C12.5284 2.71857 12.3445 3.47684 11.9998 4.33434C11.3124 6.04486 9.99782 8.12573 7.46082 9.67173C3.88555 11.8504 2.55937 16.7459 3.12608 21.1283C3.70465 25.6027 6.32519 30.2401 11.51 31.9252C12.0266 32.0933 12.596 31.9734 12.9956 31.6126C13.4845 31.1712 13.5094 30.5862 13.3851 29.9957C13.294 29.5624 13.1009 28.4772 13.1009 27.181C13.1009 26.7616 13.1207 26.3313 13.1667 25.8998C13.9636 27.6807 15.0438 28.9796 16.1234 29.9085C17.7294 31.2902 19.2471 31.7926 19.6989 31.9223C20.0417 32.0208 20.4061 32.0269 20.7418 31.8959C24.7062 30.3497 27.2021 28.2513 28.5964 25.8523C29.9875 23.4586 30.1834 20.9347 29.8722 18.7102C29.5627 16.4971 28.7453 14.5205 28.0266 13.1189C27.483 12.059 26.9817 11.2996 26.7516 10.9672C26.4695 10.5598 26.1019 10.2454 25.5783 10.1873C25.1611 10.1411 24.7432 10.2684 24.4272 10.538L22.0922 12.5303C22.2927 9.3704 21.1527 6.71559 19.7377 4.7149C18.7101 3.2621 17.5377 2.14633 16.6296 1.39625C16.1735 1.01937 15.778 0.729879 15.4918 0.531649C15.3484 0.432432 15.2321 0.355735 15.1485 0.302067C14.6538 -0.0158202 14.0604 -0.117343 13.5162 0.166349ZM10.1377 28.0081C10.1245 27.7439 10.1168 27.4672 10.1168 27.181C10.1168 25.6494 10.3358 23.7163 11.2031 21.9194C11.4935 21.3177 11.8567 20.7312 12.3088 20.1802C12.6892 19.7166 13.3203 19.5248 13.9034 19.6958C14.4865 19.8667 14.9047 20.366 14.9598 20.9572C15.2973 24.5772 16.7899 26.6016 18.0976 27.7267C18.7659 28.3018 19.4106 28.6621 19.8776 28.8758C21.68 29.0903 25.2383 25.7287 26.0001 24.4179C26.9869 22.72 27.164 20.8796 26.9156 19.1034C26.6254 17.029 25.7538 15.1094 25.0603 13.8641L20.4244 17.8194C19.8945 18.2717 19.1122 18.3009 18.5482 17.8897C17.9842 17.4782 17.7921 16.7385 18.0872 16.1149C20.0508 11.9665 18.9272 8.69399 17.2812 6.36678C16.6277 5.44301 15.8923 4.67383 15.2345 4.07803C15.1149 4.48691 14.9654 4.93007 14.7782 5.39592C14.5123 6.05743 14.1694 6.76702 13.7281 7.48942C12.7398 9.10703 11.258 10.7889 9.04231 12.1391C6.87546 13.4595 5.59074 16.9292 6.08667 20.7643C6.46056 23.6557 7.80781 26.3618 10.1377 28.0081Z" fill="#DC0000"/>
</svg>
