<svg width="32" height="34" viewBox="0 0 32 34" fill="none" xmlns="http://www.w3.org/2000/svg">
<path d="M18.44 1.00001C18.155 1.05251 17.9425 1.29251 17.92 1.58001L17.8 3.02001H13.9L13.76 1.60001C13.7175 1.27001 13.4325 1.02751 13.1 1.04001L8.4 1.24001C8.2225 1.25001 8.0575 1.33251 7.9425 1.47001C7.83 1.60501 7.7775 1.78251 7.8 1.96001L7.94 3.28001L3.64 4.06001C3.3025 4.12001 3.0725 4.44001 3.12 4.78001L4.28 12.52H2.56C2.54 12.52 2.52 12.52 2.5 12.52C2.3075 12.535 2.1325 12.6375 2.025 12.7975C1.9175 12.955 1.885 13.155 1.94 13.34L7.32 32.54C7.4 32.815 7.6525 33.0025 7.94 33H24.06C24.3475 33.0025 24.6 32.815 24.68 32.54L30.06 13.34C30.1175 13.145 30.0775 12.935 29.9575 12.775C29.835 12.6125 29.6425 12.5175 29.44 12.52H27.46L28.52 6.76001C28.555 6.58501 28.5125 6.40251 28.4075 6.25751C28.3 6.11251 28.1375 6.02001 27.96 6.00001L23.54 5.52001L23.84 2.22001C23.865 1.88001 23.6175 1.58251 23.28 1.54001L18.62 1.00001C18.56 0.99251 18.5 0.99251 18.44 1.00001ZM12.54 2.34001L14.18 18.1C12.53 17.7675 11.3675 17.0075 10.52 16.16L9.28 3.92001C9.28 3.90751 9.28 3.89251 9.28 3.88001V3.84001C9.2825 3.75751 9.2675 3.67751 9.24 3.60001L9.14 2.50001L12.54 2.34001ZM19.12 2.36001L22.52 2.74001L21.24 16.38C20.42 17.13 19.345 17.7925 17.86 18.1L19.12 2.36001ZM14.04 4.30001H17.7L16.58 18.24C16.3875 18.25 16.2025 18.28 16 18.28C15.82 18.28 15.6525 18.27 15.48 18.26L14.04 4.30001ZM8.06 4.56001L9.04 14.1C8.7175 13.465 8.56 13 8.56 13C8.4875 12.7175 8.2325 12.52 7.94 12.52H5.58L4.48 5.20001L8.06 4.56001ZM23.42 6.78001L27.14 7.20001L26.16 12.52H24.06C23.7675 12.52 23.5125 12.7175 23.44 13C23.44 13 23.2375 13.705 22.68 14.62L23.42 6.78001ZM3.4 13.8H7.5C7.6775 14.3075 8.0625 15.2875 9.04 16.46C9.125 16.5625 9.2275 16.6575 9.32 16.76C9.32 16.7675 9.32 16.7725 9.32 16.78C9.38 16.94 9.5025 17.07 9.66 17.14C9.6625 17.1425 9.6775 17.1375 9.68 17.14C11.0225 18.43 13.0675 19.56 16 19.56C19.445 19.56 21.6675 18.01 22.96 16.46C23.9375 15.2875 24.3225 14.3075 24.5 13.8H28.6L23.56 31.72H8.44L3.4 13.8Z" fill="#DC0000" stroke="#DC0000"/>
</svg>
