<svg width="35" height="35" viewBox="0 0 35 35" fill="none" xmlns="http://www.w3.org/2000/svg">
<path d="M17.5 5.83334C15.1926 5.83334 12.9369 6.51758 11.0184 7.79953C9.09979 9.08147 7.60444 10.9036 6.72142 13.0354C5.8384 15.1671 5.60736 17.513 6.05752 19.776C6.50768 22.0392 7.61882 24.1179 9.25044 25.7497C10.882 27.3812 12.9608 28.4923 15.224 28.9425C17.487 29.3927 19.8329 29.1616 21.9647 28.2786C24.0965 27.3955 25.9185 25.9003 27.2006 23.9817C28.4824 22.0631 29.1667 19.8075 29.1667 17.5C29.1667 14.4058 27.9374 11.4384 25.7497 9.25044C23.5617 7.0625 20.5942 5.83334 17.5 5.83334ZM23.2313 13.825L21.3208 22.8521C21.175 23.4938 20.7958 23.6396 20.2563 23.3479L17.3396 21.1896L15.8813 22.5458C15.8126 22.6355 15.7243 22.7084 15.6233 22.7591C15.5222 22.8095 15.4109 22.8363 15.2979 22.8375L15.5021 19.9208L20.8979 15.0354C21.1458 14.8313 20.8979 14.7146 20.5479 14.9188L13.9271 19.075L11.0104 18.1708C10.3833 17.9813 10.3688 17.5438 11.1417 17.2521L22.3854 12.8771C22.9396 12.7167 23.4063 13.0375 23.2313 13.825Z" fill="#DC0000"/>
</svg>
