<svg width="35" height="35" viewBox="0 0 35 35" fill="none" xmlns="http://www.w3.org/2000/svg">
<path d="M20.8502 17.2266C20.3033 17.021 20.3033 16.2356 20.2694 15.6888C20.1327 13.7408 20.8163 10.7669 19.9959 9.50251C19.4152 8.75001 16.6119 8.81892 14.9034 8.92173C14.4244 8.99064 13.8436 9.09236 13.4334 9.29798C13.0233 9.50361 12.6131 9.84486 12.6131 10.1522C12.6131 10.5963 13.6391 10.5285 14.0142 11.1092C14.4244 11.725 14.4244 13.0572 14.4244 14.151C14.4244 15.4153 14.2188 17.091 13.7069 17.1588C12.9205 17.1927 12.4764 16.4063 12.0663 15.8255C11.2459 14.6978 10.4256 13.2956 9.80985 11.9285C9.50251 11.211 9.33079 10.4245 8.88672 10.1172C8.20313 9.63814 6.97266 9.60423 5.7761 9.63814C4.68235 9.67205 3.10954 9.53533 2.80219 10.185C2.56266 10.9025 3.07563 11.5861 3.34907 12.168C4.75016 15.2097 6.25407 17.8763 8.10032 20.405C9.80985 22.7631 11.4155 24.6433 14.56 25.6342C15.4492 25.9077 19.3452 26.6941 20.1316 25.6342C20.405 25.2241 20.3372 24.301 20.4739 23.6174C20.6106 22.9338 20.7813 22.2502 21.4309 22.2163C21.9778 22.1824 22.2852 22.6603 22.6275 23.0027C23.0038 23.3789 23.3111 23.6863 23.5845 24.0286C24.2342 24.6783 24.9178 25.5664 25.7381 25.9088C26.8658 26.3878 28.6092 26.2511 30.2498 26.1822C31.5831 26.1483 32.5402 25.8749 32.643 25.0885C32.7119 24.4727 32.0272 23.5845 31.617 23.0716C30.5911 21.8072 30.1131 21.431 28.9505 20.2683C28.4375 19.7553 27.7878 19.2085 27.7878 18.5938C27.7539 18.2175 28.0613 17.8763 28.3347 17.5C29.5313 15.7227 30.7278 14.4583 31.8216 12.612C32.1289 12.0652 32.8475 10.8008 32.5741 10.185C32.2667 9.50142 30.5572 9.70595 29.4974 9.70595C28.1302 9.70595 26.3528 9.60314 26.0105 9.87658C25.3608 10.3206 25.0874 11.0392 24.78 11.7228C24.0964 13.2956 23.1733 14.9013 22.2163 16.0978C21.8739 16.508 21.2253 17.3622 20.8491 17.2255L20.8502 17.2266Z" fill="#DC0000"/>
</svg>
